<?xml version="1.0" encoding="utf-8"?>
<!-- Generator: Adobe Illustrator 27.6.1, SVG Export Plug-In . SVG Version: 6.00 Build 0)  -->
<svg version="1.1" id="Layer_2_00000135650931727733856920000013601962949062505351_"
	 xmlns="http://www.w3.org/2000/svg" xmlns:xlink="http://www.w3.org/1999/xlink" x="0px" y="0px" viewBox="0 0 397.9 188"
	 style="enable-background:new 0 0 397.9 188;" xml:space="preserve">
<style type="text/css">
	.st0{fill:#FFFFFF;}
	.st1{font-family:'Arial-BoldMT';}
	.st2{font-size:77.51px;}
	.st3{letter-spacing:-6;}
	.st4{letter-spacing:-4;}
	.st5{fill:#116CB4;stroke:#116CB4;stroke-width:0.78;stroke-miterlimit:10;}
</style>
<g id="Layer_1-2">
	<text transform="matrix(1 0 0 1 0 164.24)" class="st0 st1 st2 st3">R</text>
	<text transform="matrix(1 0 0 1 54.08 164.24)" class="st0 st1 st2 st4">OE</text>
	<text transform="matrix(1 0 0 1 164.85 164.24)" class="st0 st1 st2 st3">B</text>
	<text transform="matrix(1 0 0 1 218.24 164.24)" class="st0 st1 st2 st4">UCK</text>
	<path class="st5" d="M246.6,41.5c-10.9-1-19.2,1.7-24.5,7.9c-1.5,1.8-2.7,3.7-3.6,5.8c-3.3-0.4-6.9-1.4-11-3
		c1.2-3.5,4.6-10.5,12.5-14.7c28-10,35.7-35,35.7-35l-5.8-1.8c-4.2,11.2-10.4,17.1-10.4,17.1c-0.9-3.4,2.5-10.4,2.5-10.4l-5.5-2.9
		c-4.1,7.3-2.3,18.5-2.3,18.5c-4.9,3.6-9.7,6.2-14.4,8.1l0,0c-15.5,6.6-18.4,21.5-18.6,22.2c-0.2,1.3,0.4,2.6,1.7,3.2
		c5.1,2.3,9.6,3.6,13.8,4.3c-1.8,7.7-1,15.6-0.3,19.8c-6.7,2.1-13.7,9.4-17.2,13.6c-3.6-4.2-10.5-11.5-17.2-13.6
		c0.7-4.2,1.5-12.1-0.3-19.8c4.1-0.7,8.7-2,13.8-4.3c1.2-0.5,1.9-1.8,1.7-3.2c-0.1-0.7-3.1-15.8-18.8-22.3v0
		c-4.6-1.8-9.4-4.5-14.4-8.1c0,0,1.8-11.3-2.3-18.5l-5.5,2.9c0,0,3.3,7,2.5,10.4c0,0-6.2-5.9-10.4-17.1l-5.8,1.8c0,0,7.7,25,35.7,35
		c8.2,4.2,11.5,11.3,12.8,14.8c-4.1,1.6-7.7,2.6-11,3c-0.9-2.1-2.1-4-3.6-5.8c-5.4-6.2-13.6-8.9-24.5-7.9c-0.9,0.1-1.8,0.6-2.2,1.4
		s-0.5,1.8-0.1,2.7c0.1,0.2,7.4,15.7,26.3,15.7c0.1,0,0.2,0,0.2,0c2.6,9.6,0,20.7-0.1,20.9c-0.2,0.8,0,1.7,0.5,2.4
		c0.5,0.7,1.3,1.1,2.2,1.1c5.4,0.2,14.1,9.2,18.4,14.8c0.6,0.7,1.4,1.2,2.3,1.2l0,0c0.9,0,1.8-0.4,2.3-1.2
		c4.2-5.6,13-14.6,18.4-14.8c0.9,0,1.7-0.4,2.2-1.1c0.5-0.7,0.7-1.6,0.5-2.4c0-0.1-2.7-11.2-0.1-20.9c0.1,0,0.2,0,0.2,0
		c18.9,0,26.2-15.5,26.3-15.7c0.4-0.8,0.3-1.8-0.1-2.7C248.4,42.1,247.5,41.6,246.6,41.5L246.6,41.5z M157,47.1
		c6.4,0.2,11.3,2.2,14.6,6c0.6,0.7,1.1,1.4,1.6,2.2C164.9,54.7,159.8,50.4,157,47.1L157,47.1z M224.9,55.3c0.5-0.8,1-1.5,1.6-2.2
		c3.3-3.8,8.2-5.8,14.6-6C238.4,50.4,233.2,54.7,224.9,55.3z"/>
</g>
</svg>
