<svg xmlns="http://www.w3.org/2000/svg" xmlns:xlink="http://www.w3.org/1999/xlink" viewBox="0 0 983.15 129.12"><defs><style>.cls-1{fill:url(#linear-gradient);}.cls-2{fill:#fff;}</style><linearGradient id="linear-gradient" x1="52.09" y1="129.12" x2="52.09" gradientUnits="userSpaceOnUse"><stop offset="0" stop-color="#c18903"/><stop offset="1" stop-color="#e19e06"/></linearGradient></defs><g id="Layer_2" data-name="Layer 2"><g id="Layer_1-2" data-name="Layer 1"><path class="cls-1" d="M87.1,29.55,99.57,17.08A58.33,58.33,0,0,0,17.08,99.57h0L4.61,112A58.33,58.33,0,0,0,87.1,29.55Z"/><path class="cls-2" d="M171.26,117.65a46.52,46.52,0,0,1-19.81-25.07L175.53,81.2A37.7,37.7,0,0,0,188,96.31a30.06,30.06,0,0,0,17.51,5.47q14.46,0,14.45-10.73,0-7.23-11.82-10.51l-20.36-5.69q-14.67-4.16-22.55-13.46a33,33,0,0,1-7.88-22,33.62,33.62,0,0,1,5.69-19.48,37.9,37.9,0,0,1,16-13,56.41,56.41,0,0,1,23.65-4.7q17.5,0,30.76,8.21a44.47,44.47,0,0,1,18.72,23.09L227.85,44.86a23.17,23.17,0,0,0-9.52-11.94,28.17,28.17,0,0,0-15.65-4.48q-6.36,0-10,2.62a8.46,8.46,0,0,0-3.62,7.23q0,7,12.92,10.73l19,5.69Q236,59.09,243.84,68t7.88,21.79q0,16.64-12.7,26.93T205.52,127Q185.83,127,171.26,117.65Z"/><path class="cls-2" d="M269.12,117.76q-11.28-9.2-11.27-25.4,0-15.1,10.51-25t32-13.36l33.06-5.25V45.51A14.39,14.39,0,0,0,328,34.13q-5.36-4.61-14.55-4.6A25.72,25.72,0,0,0,298,34.35a27.61,27.61,0,0,0-9.74,12.7L262,34.57q5.25-14.89,19.59-23.65T315,2.17q15.11,0,26.71,5.47a43.27,43.27,0,0,1,18.06,15.21,40.12,40.12,0,0,1,6.46,22.66v78.82H335.57V113.16Q322,127,299.66,127,280.4,127,269.12,117.76Zm26.82-18a16.88,16.88,0,0,0,10.29,3.06q12.25,0,19.7-7.66a25.73,25.73,0,0,0,7.45-18.61V72.88L306.23,77.7q-7,1.3-10.73,4.48t-3.72,9.09A10,10,0,0,0,295.94,99.81Z"/><path class="cls-2" d="M381.54,4.79h30.65V19.46a29.3,29.3,0,0,1,13.36-13,45.46,45.46,0,0,1,20.14-4.26,47.15,47.15,0,0,1,21.56,4.92A35,35,0,0,1,482,20.56,39.13,39.13,0,0,1,497.9,6.65,49,49,0,0,1,519,2.17a45.27,45.27,0,0,1,22.88,5.69,40.88,40.88,0,0,1,15.65,15.87q5.69,10.18,5.69,23.75v76.85H530.41V54.49q0-10.29-5.58-16.53t-15.22-6.24Q500,31.72,494.4,38t-5.58,16.53v69.84H456V54.49Q456,44.2,450.39,38t-15.21-6.24q-9.65,0-15.22,6.24t-5.58,16.53v69.84H381.54Z"/><path class="cls-2" d="M576.17,4.79h30.65V19.46a29.23,29.23,0,0,1,13.35-13,45.49,45.49,0,0,1,20.14-4.26,47.19,47.19,0,0,1,21.57,4.92,35,35,0,0,1,14.77,13.47A39.22,39.22,0,0,1,692.53,6.65a48.89,48.89,0,0,1,21.12-4.48,45.25,45.25,0,0,1,22.88,5.69,40.81,40.81,0,0,1,15.65,15.87q5.7,10.18,5.7,23.75v76.85H725V54.49Q725,44.2,719.45,38t-15.21-6.24q-9.65,0-15.22,6.24t-5.58,16.53v69.84H650.6V54.49Q650.6,44.2,645,38T629.8,31.72q-9.63,0-15.21,6.24T609,54.49v69.84H576.17Z"/><path class="cls-2" d="M777.25,117.76Q766,108.57,766,92.36q0-15.1,10.51-25t32-13.36l33-5.25V45.51a14.41,14.41,0,0,0-5.36-11.38q-5.37-4.61-14.56-4.6a25.69,25.69,0,0,0-15.43,4.82,27.63,27.63,0,0,0-9.75,12.7L770.13,34.57q5.26-14.89,19.6-23.65t33.38-8.75q15.1,0,26.71,5.47a43.15,43.15,0,0,1,18.06,15.21,40,40,0,0,1,6.46,22.66v78.82H843.69V113.16Q830.12,127,807.79,127,788.52,127,777.25,117.76Zm26.82-18a16.88,16.88,0,0,0,10.29,3.06q12.25,0,19.7-7.66A25.73,25.73,0,0,0,841.5,76.6V72.88L814.36,77.7q-7,1.3-10.73,4.48t-3.72,9.09A10,10,0,0,0,804.07,99.81Z"/><path class="cls-2" d="M902.26,117.65a46.53,46.53,0,0,1-19.82-25.07L906.52,81.2A37.78,37.78,0,0,0,919,96.31a30.09,30.09,0,0,0,17.52,5.47q14.44,0,14.45-10.73,0-7.23-11.83-10.51l-20.36-5.69q-14.67-4.16-22.55-13.46a33,33,0,0,1-7.88-22,33.63,33.63,0,0,1,5.7-19.48,37.83,37.83,0,0,1,16-13,56.39,56.39,0,0,1,23.64-4.7q17.52,0,30.76,8.21a44.43,44.43,0,0,1,18.72,23.09l-24.3,11.39a23.19,23.19,0,0,0-9.53-11.94,28.12,28.12,0,0,0-15.65-4.48q-6.34,0-10,2.62a8.45,8.45,0,0,0-3.61,7.23q0,7,12.91,10.73l19,5.69Q966.94,59.09,974.83,68t7.88,21.79q0,16.64-12.7,26.93T936.52,127Q916.81,127,902.26,117.65Z"/></g></g></svg>