<?xml version="1.0" encoding="UTF-8"?><svg id="Layer_2" xmlns="http://www.w3.org/2000/svg" viewBox="0 0 126.63 129.65"><defs><style>.cls-1{fill:#fda90d;}.cls-2{fill:#242325;}</style></defs><g id="Layer_1-2"><g><path id="d" class="cls-2" d="m43.43,129.64c-17.9,0-32.41-14.51-32.41-32.41s14.51-32.41,32.41-32.41,32.27,14.36,32.34,32.34c.07,17.98-14.44,32.49-32.34,32.49h0Z"/><path id="e" class="cls-2" d="m94.29,87.65c-17.9,0-32.41-14.51-32.41-32.41s14.51-32.41,32.41-32.41,32.27,14.36,32.34,32.34c.07,17.98-14.44,32.49-32.34,32.49h0Z"/><path id="f" class="cls-1" d="m32.41,64.82C14.51,64.82,0,50.31,0,32.41S14.51,0,32.41,0s32.27,14.36,32.34,32.34-14.44,32.49-32.34,32.49h0Z"/></g></g></svg>