<?xml version="1.0" encoding="UTF-8"?><svg xmlns="http://www.w3.org/2000/svg" viewBox="0 0 648.18 134.8"><defs><style>.h{fill:#fda90d;}.i{fill:#242325;}</style></defs><g id="a"/><g id="b"><g id="c"><g><path class="i" d="M173.97,44.44h-9.2v-5.87c1.37-.28,2.61-.55,3.72-.82,1.11-.26,2.1-.57,2.97-.91,.87-.34,1.65-.76,2.36-1.24,.71-.48,1.34-1.13,1.91-1.94,.48-.61,1-1.45,1.54-2.54,.54-1.09,1.09-2.3,1.63-3.63,.55-1.33,1.07-2.74,1.57-4.24,.5-1.49,.96-2.97,1.36-4.42h8.35v16.16h20.52v9.44h-19.98v25.73c0,5.08,.09,9.16,.27,12.23,.18,3.07,.54,5.43,1.09,7.08,.54,1.66,1.28,2.75,2.21,3.27,.93,.53,2.16,.79,3.69,.79,.89,0,1.89-.07,3-.21,1.11-.14,2.19-.32,3.24-.55,1.05-.22,2.03-.48,2.94-.79,.91-.3,1.62-.61,2.15-.94l2.6,6.24c-.93,1.01-2.2,1.94-3.81,2.78-1.61,.85-3.42,1.57-5.42,2.18-2,.61-4.1,1.08-6.3,1.42-2.2,.34-4.37,.51-6.51,.51-2.95,0-5.43-.39-7.45-1.18-2.02-.79-3.65-2-4.9-3.63-1.25-1.63-2.16-3.72-2.72-6.27-.57-2.54-.85-5.57-.85-9.08V44.44Z"/><path class="i" d="M221.43,95.83l8.48-1.45V50.49l-8.42-5.33v-5.93l19.68-5.87,3.69,1.15v10.78c.61-1.65,1.65-3.21,3.15-4.66,1.49-1.45,3.15-2.71,4.96-3.78,1.82-1.07,3.68-1.92,5.6-2.54,1.92-.62,3.64-.94,5.18-.94,1.37,0,2.63,.05,3.78,.15,1.15,.1,1.97,.25,2.45,.45v16.23c-1.17-.77-2.71-1.38-4.63-1.85-1.92-.46-3.88-.7-5.9-.7-1.7,0-3.19,.1-4.48,.3-1.29,.2-2.44,.46-3.45,.79-1.01,.32-1.87,.67-2.57,1.03-.71,.36-1.3,.71-1.79,1.03v43.23l15.44,1.82v6.9h-41.17v-6.9Z"/><path class="i" d="M278.1,95.83l9.08-1.57V51.52l-7.99-6.84v-4.84l20.89-6.48,4.06,1.39v59.63l9.2,1.45v6.9h-35.23v-6.9Z"/><path class="i" d="M329.2,44.44h-9.2v-5.87c1.37-.28,2.61-.55,3.72-.82,1.11-.26,2.1-.57,2.97-.91,.87-.34,1.65-.76,2.36-1.24,.71-.48,1.34-1.13,1.91-1.94,.48-.61,1-1.45,1.54-2.54,.54-1.09,1.09-2.3,1.63-3.63,.55-1.33,1.07-2.74,1.57-4.24,.5-1.49,.96-2.97,1.36-4.42h8.35v16.16h20.52v9.44h-19.98v25.73c0,5.08,.09,9.16,.27,12.23,.18,3.07,.54,5.43,1.09,7.08,.54,1.66,1.28,2.75,2.21,3.27,.93,.53,2.16,.79,3.69,.79,.89,0,1.89-.07,3-.21,1.11-.14,2.19-.32,3.24-.55,1.05-.22,2.03-.48,2.94-.79,.91-.3,1.62-.61,2.15-.94l2.6,6.24c-.93,1.01-2.2,1.94-3.81,2.78-1.61,.85-3.42,1.57-5.42,2.18-2,.61-4.1,1.08-6.3,1.42-2.2,.34-4.37,.51-6.51,.51-2.95,0-5.43-.39-7.45-1.18-2.02-.79-3.65-2-4.9-3.63-1.25-1.63-2.16-3.72-2.72-6.27-.57-2.54-.85-5.57-.85-9.08V44.44Z"/><path class="i" d="M382.5,121.2c1.23,.2,2.57,.28,4.03,.24,1.17,0,2.5-.21,4-.64,1.49-.42,3.01-1.29,4.54-2.6,1.53-1.31,3.03-3.2,4.48-5.66,1.45-2.46,2.7-5.73,3.75-9.81h-2.97l-24.03-57.45-5.69-1.39v-8.9h32.21v8.9l-7.69,1.51,12.9,35.84,2.24,9.2,2.6-9.2,10.9-36.08-8.78-1.27v-8.9h28.76v8.9l-6.36,1.15c-2.87,7.71-5.39,14.45-7.57,20.22-2.18,5.77-4.07,10.77-5.66,14.98-1.6,4.22-2.94,7.77-4.03,10.66-1.09,2.89-2.01,5.29-2.75,7.2-.75,1.92-1.34,3.45-1.79,4.6-.44,1.15-.83,2.13-1.15,2.94-1.7,4.44-3.4,8.39-5.12,11.87-1.72,3.47-3.56,6.43-5.54,8.87-1.98,2.44-4.16,4.36-6.54,5.75-2.38,1.39-5.07,2.21-8.05,2.45-1.7,.2-3.51,.26-5.45,.18-.89-.08-1.77-.18-2.63-.3-.87-.12-1.48-.3-1.85-.54l.06-13.32c.89,.2,1.95,.4,3.18,.61Z"/><path class="i" d="M453.48,47.34l-5.93-3.21v-6.18l19.86-4.6,2.72,1.09v41.95c0,2.99,.15,5.58,.45,7.78,.3,2.2,.86,4.03,1.67,5.48,.81,1.45,1.92,2.53,3.33,3.24,1.41,.71,3.23,1.06,5.45,1.06,1.37,0,2.74-.15,4.12-.45,1.37-.3,2.65-.69,3.84-1.15,1.19-.46,2.26-.98,3.21-1.54,.95-.56,1.69-1.11,2.21-1.63V48.13l-7.63-3.27v-6.9l21.85-4.6,2.6,1.03v61.45h7.08v5.69c-.65,.4-1.51,.8-2.6,1.18-1.09,.38-2.3,.72-3.63,1-1.33,.28-2.72,.5-4.18,.67-1.45,.16-2.85,.24-4.18,.24-2.22,0-4.05-.47-5.48-1.42-1.43-.95-2.15-2.49-2.15-4.63v-3.45c-1.41,1.45-3,2.75-4.75,3.87-1.76,1.13-3.57,2.09-5.45,2.88-1.88,.79-3.74,1.38-5.6,1.79-1.86,.4-3.59,.61-5.21,.61-4.44,0-8.06-.6-10.87-1.79-2.81-1.19-5.01-2.94-6.6-5.24-1.6-2.3-2.69-5.13-3.27-8.48-.59-3.35-.88-7.18-.88-11.5v-29.91Z"/><path class="i" d="M529.34,95.83l7.87-1.45V50.49l-8.42-5.33v-5.93l19.74-5.87,3.69,1.21v8.78c1.29-1.25,2.82-2.46,4.6-3.63,1.78-1.17,3.67-2.22,5.69-3.15,2.02-.93,4.11-1.68,6.27-2.27,2.16-.58,4.29-.92,6.39-1,2.18-.12,4.24-.05,6.18,.21,1.94,.26,3.72,.75,5.36,1.45,1.63,.71,3.09,1.68,4.36,2.91,1.27,1.23,2.31,2.77,3.12,4.63,1.37-1.13,2.92-2.24,4.63-3.33,1.72-1.09,3.56-2.06,5.54-2.91,1.98-.85,4.06-1.53,6.24-2.06,2.18-.52,4.42-.81,6.72-.85,3.91-.04,7.23,.54,9.96,1.73,2.72,1.19,4.95,2.99,6.69,5.39,1.73,2.4,3,5.43,3.78,9.08,.79,3.65,1.18,7.9,1.18,12.74v32.03l9.26,1.51v6.9h-34.02v-6.9l7.57-1.51v-29.6c0-3.87-.21-7.09-.64-9.66-.42-2.56-1.14-4.6-2.15-6.11-1.01-1.51-2.38-2.56-4.12-3.15-1.74-.58-3.9-.86-6.48-.82-1.98,.08-4.02,.47-6.11,1.18-2.1,.71-4.06,1.64-5.87,2.82,.28,1.37,.5,3,.67,4.87,.16,1.88,.24,4.25,.24,7.11v33.36l8.9,1.51v6.9h-34.87v-6.9l8.84-1.57v-30.21c0-3.87-.25-7.06-.76-9.57-.5-2.5-1.32-4.48-2.45-5.93-1.13-1.45-2.6-2.44-4.42-2.97-1.82-.52-4.02-.71-6.6-.55-.77,.08-1.63,.23-2.6,.45-.97,.22-1.97,.51-3,.88-1.03,.36-2.05,.82-3.06,1.36-1.01,.54-1.94,1.14-2.78,1.79v24.34c0,1.66-.01,3.41-.03,5.27-.02,1.86-.03,3.69-.03,5.51v9.69l8.42,1.51v6.9h-33.48v-6.9Z"/><g><path id="d" class="i" d="M43.43,132.22c-17.9,0-32.41-14.51-32.41-32.41s14.51-32.41,32.41-32.41,32.27,14.36,32.34,32.34c.07,17.98-14.44,32.49-32.34,32.49h0Z"/><path id="e" class="i" d="M94.29,90.23c-17.9,0-32.41-14.51-32.41-32.41s14.51-32.41,32.41-32.41,32.27,14.36,32.34,32.34c.07,17.98-14.44,32.49-32.34,32.49Z"/><path id="f" class="h" d="M32.41,67.4C14.51,67.4,0,52.89,0,34.99S14.51,2.58,32.41,2.58s32.27,14.36,32.34,32.34c.07,17.98-14.44,32.49-32.34,32.49Z"/></g><path id="g" class="h" d="M294.49,21.19c-5.85,0-10.59-4.74-10.59-10.59s4.74-10.59,10.59-10.59,10.55,4.69,10.57,10.57c.02,5.88-4.72,10.62-10.57,10.62Z"/></g></g></g></svg>